<svg width="800" height="960" viewBox="0 0 800 960" fill="none" xmlns="http://www.w3.org/2000/svg" role="img" aria-labelledby="title desc">
	<title id="title">Portrait illustration of Raj Lama</title>
	<desc id="desc">A stylized portrait illustration with a soft warm background and dark formal clothing.</desc>
	<defs>
		<linearGradient id="bg" x1="120" y1="60" x2="700" y2="920" gradientUnits="userSpaceOnUse">
			<stop stop-color="#F7E7D3" />
			<stop offset="0.54" stop-color="#E8D9C7" />
			<stop offset="1" stop-color="#D2D8E4" />
		</linearGradient>
		<linearGradient id="shirt" x1="400" y1="520" x2="400" y2="940" gradientUnits="userSpaceOnUse">
			<stop stop-color="#111827" />
			<stop offset="1" stop-color="#1F2937" />
		</linearGradient>
		<radialGradient id="glow" cx="0" cy="0" r="1" gradientUnits="userSpaceOnUse" gradientTransform="translate(400 220) rotate(90) scale(380 300)">
			<stop stop-color="#FFFFFF" stop-opacity="0.8" />
			<stop offset="1" stop-color="#FFFFFF" stop-opacity="0" />
		</radialGradient>
	</defs>
	<rect width="800" height="960" rx="56" fill="url(#bg)" />
	<rect width="800" height="960" rx="56" fill="url(#glow)" />
	<circle cx="620" cy="180" r="92" fill="#FFFFFF" fill-opacity="0.24" />
	<circle cx="160" cy="770" r="136" fill="#FFFFFF" fill-opacity="0.18" />
	<path d="M210 820C258 732 320 692 400 692C480 692 542 732 590 820V960H210V820Z" fill="url(#shirt)" />
	<path d="M275 356C275 279 336 218 400 218C464 218 525 279 525 356V476C525 549 471 610 400 610C329 610 275 549 275 476V356Z" fill="#E8C6A3" />
	<path d="M250 332C260 250 327 188 400 188C473 188 540 250 550 332C526 321 500 317 474 321C452 282 426 263 400 263C374 263 348 282 326 321C300 317 274 321 250 332Z" fill="#1F2937" />
	<path d="M247 353C243 393 259 433 290 460C319 487 359 498 400 498C441 498 481 487 510 460C541 433 557 393 553 353C537 363 518 369 498 371C485 339 466 315 446 301C428 290 414 285 400 285C386 285 372 290 354 301C334 315 315 339 302 371C282 369 263 363 247 353Z" fill="#D8AE86" />
	<ellipse cx="347" cy="413" rx="22" ry="28" fill="#C4946D" fill-opacity="0.34" />
	<ellipse cx="453" cy="413" rx="22" ry="28" fill="#C4946D" fill-opacity="0.34" />
	<path d="M357 420C373 434 427 434 443 420" stroke="#7A4B2F" stroke-width="8" stroke-linecap="round" />
	<path d="M331 383C343 375 355 375 368 383" stroke="#694026" stroke-width="8" stroke-linecap="round" />
	<path d="M432 383C444 375 456 375 469 383" stroke="#694026" stroke-width="8" stroke-linecap="round" />
	<circle cx="348" cy="404" r="6" fill="#111827" />
	<circle cx="452" cy="404" r="6" fill="#111827" />
	<path d="M400 431C387 431 377 438 377 447C377 456 387 463 400 463C413 463 423 456 423 447C423 438 413 431 400 431Z" fill="#B57A56" fill-opacity="0.78" />
	<path d="M323 507C347 531 375 543 400 543C425 543 453 531 477 507" stroke="#B27A57" stroke-width="12" stroke-linecap="round" />
	<path d="M320 568C342 543 369 529 400 529C431 529 458 543 480 568" stroke="#FFFFFF" stroke-opacity="0.16" stroke-width="22" stroke-linecap="round" />
	<path d="M292 704C317 684 353 674 400 674C447 674 483 684 508 704" stroke="#FFFFFF" stroke-opacity="0.12" stroke-width="20" stroke-linecap="round" />
	<path d="M350 628L340 960H460L450 628" fill="url(#shirt)" />
	<path d="M362 622L400 744L438 622L470 648L443 960H357L330 648L362 622Z" fill="#0F172A" />
</svg>
